<svg xmlns="http://www.w3.org/2000/svg" width="512" height="512" fill="none" viewBox="0 0 512 512"><defs><linearGradient id="b" x1="72" x2="432" y1="64" y2="448" gradientUnits="userSpaceOnUse"><stop stop-color="#071427"/><stop offset=".5" stop-color="#163D9A"/><stop offset="1" stop-color="#6D28D9"/></linearGradient><linearGradient id="d" x1="132" x2="396" y1="116" y2="396" gradientUnits="userSpaceOnUse"><stop stop-color="#7DD3FC"/><stop offset=".45" stop-color="#22D3EE"/><stop offset="1" stop-color="#60A5FA"/></linearGradient><linearGradient id="e" x1="132" x2="396" y1="116" y2="396" gradientUnits="userSpaceOnUse"><stop stop-color="#A78BFA"/><stop offset="1" stop-color="#38BDF8"/></linearGradient><filter id="c" width="348" height="368" x="82" y="72" color-interpolation-filters="sRGB" filterUnits="userSpaceOnUse"><feFlood flood-opacity="0" result="BackgroundImageFix"/><feBlend in="SourceGraphic" in2="BackgroundImageFix" result="shape"/><feGaussianBlur result="effect1_foregroundBlur_1_2" stdDeviation="12"/></filter><filter id="a" width="472" height="472" x="20" y="20" color-interpolation-filters="sRGB" filterUnits="userSpaceOnUse"><feFlood flood-opacity="0" result="BackgroundImageFix"/><feColorMatrix in="SourceAlpha" result="hardAlpha" values="0 0 0 0 0 0 0 0 0 0 0 0 0 0 0 0 0 0 127 0"/><feOffset dy="12"/><feGaussianBlur stdDeviation="18"/><feComposite in2="hardAlpha" operator="out"/><feColorMatrix values="0 0 0 0 0.0196078 0 0 0 0 0.0470588 0 0 0 0 0.164706 0 0 0 0.4 0"/><feBlend in2="BackgroundImageFix" result="effect1_dropShadow_1_2"/><feBlend in="SourceGraphic" in2="effect1_dropShadow_1_2" result="shape"/></filter></defs><g filter="url(#a)"><rect width="400" height="400" x="56" y="56" fill="url(#b)" rx="96"/><rect width="399" height="399" x="56.5" y="56.5" stroke="#FFF" stroke-opacity=".14" rx="95.5"/><circle cx="140" cy="122" r="4" fill="#9BE7FF" fill-opacity=".75"/><circle cx="372" cy="146" r="5" fill="#A78BFA" fill-opacity=".45"/><circle cx="332" cy="372" r="6" fill="#67E8F9" fill-opacity=".45"/><g filter="url(#c)"><rect width="72" height="72" x="132" y="116" fill="url(#d)" rx="20"/><rect width="72" height="72" x="132" y="116" stroke="#D9F9FF" stroke-width="8" rx="20"/><rect width="72" height="72" x="132" y="212" fill="#0A1734" fill-opacity=".72" rx="20"/><rect width="72" height="72" x="132" y="212" stroke="#7DD3FC" stroke-opacity=".9" stroke-width="8" rx="20"/><rect width="72" height="72" x="132" y="308" fill="#0A1734" fill-opacity=".72" rx="20"/><rect width="72" height="72" x="132" y="308" stroke="#7DD3FC" stroke-opacity=".9" stroke-width="8" rx="20"/><rect width="72" height="72" x="228" y="308" fill="#0A1734" fill-opacity=".72" rx="20"/><rect width="72" height="72" x="228" y="308" stroke="#60A5FA" stroke-opacity=".9" stroke-width="8" rx="20"/><rect width="72" height="72" x="324" y="308" fill="url(#e)" rx="20"/><rect width="72" height="72" x="324" y="308" stroke="#F5F3FF" stroke-opacity=".92" stroke-width="8" rx="20"/></g></g></svg>